<?xml version="1.0" standalone="no"?>
<!DOCTYPE svg PUBLIC "-//W3C//DTD SVG 20010904//EN"
 "http://www.w3.org/TR/2001/REC-SVG-20010904/DTD/svg10.dtd">
<svg version="1.0" xmlns="http://www.w3.org/2000/svg"
 width="81.000000pt" height="81.000000pt" viewBox="0 0 81.000000 81.000000"
 preserveAspectRatio="xMidYMid meet">
<metadata>
Created by potrace 1.11, written by Peter Selinger 2001-2013
</metadata>
<g transform="translate(0.000000,81.000000) scale(0.100000,-0.100000)"
fill="#000000" stroke="none">
<path d="M0 749 l0 -61 28 6 c15 3 67 10 117 17 50 6 182 24 294 40 113 16
206 27 207 26 2 -2 6 -47 10 -100 7 -91 15 -120 28 -98 3 5 2 31 -3 57 -5 27
-11 69 -12 94 l-4 44 75 17 c74 17 74 17 28 18 -26 1 -58 -3 -72 -9 -16 -6
-26 -6 -26 0 0 5 -124 9 -311 9 l-311 0 6 -24 c4 -14 2 -25 -4 -25 -5 0 -10
11 -10 25 0 18 -5 25 -20 25 -18 0 -20 -7 -20 -61z m450 31 c0 -5 -5 -10 -11
-10 -5 0 -7 5 -4 10 3 6 8 10 11 10 2 0 4 -4 4 -10z m-203 -22 c-3 -8 -6 -5
-6 6 -1 11 2 17 5 13 3 -3 4 -12 1 -19z m-87 2 c0 -5 -5 -10 -11 -10 -5 0 -7
5 -4 10 3 6 8 10 11 10 2 0 4 -4 4 -10z"/>
<path d="M346 656 c-13 -20 -13 -24 -2 -20 8 3 17 13 20 21 10 26 0 25 -18 -1z"/>
<path d="M250 601 c-15 -29 -12 -61 5 -61 8 0 15 -4 15 -10 0 -5 -8 -7 -17 -3
-17 5 -17 5 -1 -8 23 -18 13 -57 -16 -61 -15 -2 -22 -11 -24 -30 -3 -29 2 -32
45 -29 11 1 24 -2 27 -8 4 -6 13 -8 21 -5 19 8 -3 44 -27 44 -10 0 -18 7 -18
15 0 8 5 15 10 15 6 0 10 9 10 20 0 25 9 26 25 3 9 -12 10 -24 4 -35 -7 -13
-4 -20 12 -28 14 -8 18 -17 14 -28 -7 -17 -16 -69 -19 -107 -1 -15 4 -19 22
-17 18 3 22 -2 22 -23 0 -24 -1 -25 -16 -11 -8 9 -17 16 -19 16 -11 0 9 -67
24 -78 15 -13 14 -15 -6 -29 -27 -18 -30 -33 -5 -33 28 0 43 37 42 98 -3 90
-1 102 14 102 8 0 16 10 18 23 5 35 40 29 57 -10 11 -25 21 -33 40 -33 18 0
34 -11 51 -35 14 -19 31 -35 38 -35 6 0 11 -4 10 -9 -2 -5 15 -25 37 -45 28
-25 41 -32 47 -23 13 20 9 27 -12 27 -11 0 -20 7 -20 15 0 8 -8 28 -19 45 -16
26 -20 29 -31 15 -7 -8 -17 -12 -22 -9 -6 4 -4 10 6 16 19 11 21 34 4 45 -7 4
-35 53 -63 108 -46 92 -50 97 -55 70 -3 -17 -12 -31 -22 -33 -19 -4 -19 21 0
40 13 13 16 32 4 24 -5 -3 -21 8 -36 25 -15 16 -31 29 -36 29 -4 0 -11 11 -14
24 -6 26 -38 40 -55 23 -8 -8 -11 -8 -11 1 0 20 -48 14 -60 -7z m150 -82 c0
-31 -45 -46 -78 -25 -10 6 -8 12 9 27 12 10 27 16 33 12 6 -3 5 0 -1 8 -24 25
-14 40 12 17 14 -12 25 -30 25 -39z"/>
<path d="M340 514 c-10 -11 -9 -14 8 -14 25 0 37 16 18 23 -8 3 -20 -1 -26 -9z"/>
<path d="M95 60 c-3 -5 1 -10 9 -10 9 0 16 5 16 10 0 6 -4 10 -9 10 -6 0 -13
-4 -16 -10z"/>
</g>
</svg>
